# xmcd
#
# Track frame offsets: 
#        150
#        11348
#        27051
#        37997
#        51072
#        65373
#        78096
#        91437
#        102682
#        116226
#        133443
#        145554
#
# Disc length: 2214 seconds
#
# Revision: 1
# Processed by: cddbd v1.5.2PL0 Copyright (c) Steve Scherf et al.
# Submitted via: ExactAudioCopy v0.95a5
#
DISCID=9a08a40c
DTITLE=Newfound Road - Same Old Place
DYEAR=2009
DGENRE=Bluegrass
TTITLE0=Try To Be
TTITLE1=Same Old Place 
TTITLE2=My Shoes Know How To Get Around 
TTITLE3=River Of Pain
TTITLE4=Love, Stay Away From Me
TTITLE5=On The Back Row 
TTITLE6=Brand New Broken Heart 
TTITLE7=Give Me Jesus
TTITLE8=I Am The Man, Thomas
TTITLE9=Lonesome River 
TTITLE10=Pile Driver 
TTITLE11=Full Circle 
EXTD=
EXTT0=
EXTT1=
EXTT2=
EXTT3=
EXTT4=
EXTT5=
EXTT6=
EXTT7=
EXTT8=
EXTT9=
EXTT10=
EXTT11=
PLAYORDER=
